<svg width="26" height="26" viewBox="0 0 26 26" fill="none" xmlns="http://www.w3.org/2000/svg">
<rect width="5" height="4.99704" rx="1" fill="#FFB600"/>
<rect y="6.99585" width="5" height="4.99704" rx="1" fill="#FFB600"/>
<rect y="13.9917" width="5" height="4.99704" rx="1" fill="#FFB600"/>
<rect x="7" width="5" height="4.99704" rx="1" fill="#FFB600"/>
<rect x="14" width="5" height="4.99704" rx="1" fill="#FFB600"/>
<rect x="7" y="6.99585" width="5" height="4.99704" rx="1" fill="white"/>
<rect x="14" y="6.99585" width="5" height="4.99704" rx="1" fill="white"/>
<rect x="21" y="6.99585" width="5" height="4.99704" rx="1" fill="white"/>
<rect x="7" y="14" width="5" height="4.99704" rx="1" fill="white"/>
<rect x="14" y="14" width="5" height="4.99704" rx="1" fill="white"/>
<rect x="21" y="14" width="5" height="4.99704" rx="1" fill="white"/>
<rect x="7" y="21" width="5" height="4.99704" rx="1" fill="white"/>
<rect x="14" y="21" width="5" height="4.99704" rx="1" fill="white"/>
<rect x="21" y="21" width="5" height="4.99704" rx="1" fill="white"/>
</svg>
