<?xml version="1.0" encoding="utf-8"?>
<svg width="68.3px" height="68.3px" viewBox="0 0 68.3 68.3" class="css-1j8o68f" version="1.1" id="svg59" xmlns="http://www.w3.org/2000/svg">
  <g id="SvgjsG1264" featurekey="Df7oLJ-0" transform="matrix(0.09634568,0,0,0.09634568,-20.482899,-20.482898)" fill="#ffb01f">
    <g id="g39">
      <path d="m 566.929,212.598 c -79.471,0 -152.832,26.163 -211.938,70.346 H 778.867 C 719.761,238.761 646.401,212.598 566.929,212.598 Z" id="path3"/>
      <path d="M 783.934,286.81 H 349.925 c -13.015,10.097 -25.31,21.078 -36.789,32.859 h 507.588 c -11.48,-11.781 -23.775,-22.762 -36.79,-32.859 z" id="path5"/>
      <path d="m 826.249,325.466 h -518.64 c -9.134,9.805 -17.714,20.132 -25.699,30.925 h 570.039 c -7.986,-10.793 -16.566,-21.12 -25.7,-30.925 z" id="path7"/>
      <path d="M 857.512,364.123 H 276.347 c -6.534,9.344 -12.629,19.018 -18.254,28.992 h 617.673 c -5.626,-9.973 -11.721,-19.647 -18.254,-28.992 z" id="path9"/>
      <path d="M 881.021,402.78 H 252.838 c -4.613,8.809 -8.866,17.835 -12.74,27.06 h 653.664 c -3.875,-9.225 -8.128,-18.251 -12.741,-27.06 z" id="path11"/>
      <path d="M 898.393,441.437 H 235.465 c -3.119,8.233 -5.938,16.614 -8.447,25.127 h 679.823 c -2.51,-8.513 -5.329,-16.893 -8.448,-25.127 z" id="path13"/>
      <path d="M 910.535,480.094 H 223.323 c -1.924,7.636 -3.601,15.37 -5.02,23.194 h 697.253 c -1.419,-7.824 -3.097,-15.558 -5.021,-23.194 z" id="path15"/>
      <path d="M 918.006,518.751 H 215.852 c -0.955,7.024 -1.708,14.112 -2.245,21.261 h 706.644 c -0.537,-7.148 -1.29,-14.237 -2.245,-21.261 z" id="path17"/>
      <path d="m 921.26,566.929 c 0,-3.184 -0.044,-6.357 -0.128,-9.521 H 212.726 c -0.083,3.164 -0.128,6.337 -0.128,9.521 0,3.28 0.048,6.549 0.137,9.808 h 708.388 c 0.089,-3.259 0.137,-6.528 0.137,-9.808 z" id="path19"/>
      <path d="M 920.072,596.065 H 213.786 c 0.475,5.84 1.091,11.639 1.846,17.396 h 702.593 c 0.756,-5.757 1.372,-11.556 1.847,-17.396 z" id="path21"/>
      <path d="M 914.778,634.722 H 219.081 c 1.007,5.196 2.128,10.351 3.359,15.463 h 688.979 c 1.231,-5.112 2.352,-10.267 3.359,-15.463 z" id="path23"/>
      <path d="M 904.986,673.379 H 228.873 c 1.432,4.55 2.954,9.061 4.562,13.53 h 666.99 c 1.607,-4.469 3.129,-8.98 4.561,-13.53 z" id="path25"/>
      <path d="M 890.277,712.036 H 243.582 c 1.755,3.904 3.578,7.77 5.468,11.597 h 635.758 c 1.891,-3.827 3.714,-7.693 5.469,-11.597 z" id="path27"/>
      <path d="M 869.943,750.693 H 263.915 c 1.979,3.257 4.014,6.477 6.095,9.664 h 593.839 c 2.08,-3.187 4.115,-6.407 6.094,-9.664 z" id="path29"/>
      <path d="M 842.766,789.35 H 291.092 c 2.106,2.609 4.251,5.184 6.43,7.731 h 538.816 c 2.177,-2.547 4.322,-5.123 6.428,-7.731 z" id="path31"/>
      <path d="M 806.482,828.007 H 327.376 c 2.134,1.959 4.291,3.892 6.473,5.799 H 800.01 c 2.181,-1.907 4.339,-3.841 6.472,-5.799 z" id="path33"/>
      <path d="M 755.972,866.664 H 377.886 c 2.071,1.309 4.156,2.599 6.257,3.866 h 365.573 c 2.1,-1.268 4.185,-2.557 6.256,-3.866 z" id="path35"/>
      <path d="M 672.325,905.32 H 461.533 c 2.141,0.666 4.294,1.307 6.452,1.933 h 197.888 c 2.158,-0.626 4.311,-1.266 6.452,-1.933 z" id="path37"/>
    </g>
    <g display="none" id="g53">
      <path display="inline" d="m 349.612,846.805 c 6.675,5.191 13.541,10.148 20.585,14.859 h 393.464 c 7.044,-4.711 13.91,-9.668 20.585,-14.859 z" id="path41"/>
      <path display="inline" d="m 212.598,566.929 c 0,15.773 1.037,31.304 3.034,46.532 h 702.593 c 1.998,-15.228 3.034,-30.759 3.034,-46.532 0,-5.178 -0.118,-10.329 -0.338,-15.453 H 212.936 c -0.22,5.124 -0.338,10.274 -0.338,15.453 z" id="path43"/>
      <path display="inline" d="M 888.909,418.823 C 832.823,297.096 709.746,212.598 566.929,212.598 c -142.817,0 -265.895,84.498 -321.98,206.225 z" id="path45"/>
      <path display="inline" d="m 222.44,650.185 c 3.567,14.811 8.062,29.259 13.424,43.28 h 662.13 c 5.362,-14.021 9.857,-28.469 13.424,-43.28 z" id="path47"/>
      <path display="inline" d="m 260.628,745.16 c 4.361,7.478 8.987,14.782 13.867,21.898 h 584.868 c 4.88,-7.117 9.506,-14.42 13.867,-21.898 z" id="path49"/>
      <path display="inline" d="m 241.166,427.327 c -13.679,31.879 -22.816,66.168 -26.596,102.055 h 704.718 c -3.78,-35.887 -12.917,-70.176 -26.596,-102.055 z" id="path51"/>
    </g>
  </g>
</svg>